<svg width="1306" height="395" viewBox="0 0 1306 395" fill="none" xmlns="http://www.w3.org/2000/svg">
<path d="M1079.99 388.801V5.72266H1134.72V149.572L1132.63 193.874C1138.89 179.628 1149.14 167.641 1163.38 157.912C1177.97 148.183 1195.35 143.318 1215.5 143.318C1241.21 143.318 1260.5 148.704 1273.35 159.475C1286.21 169.899 1294.72 184.84 1298.89 204.298C1303.41 223.756 1305.67 246.862 1305.67 273.617V388.801H1249.9V273.096C1249.9 245.299 1247.12 224.625 1241.56 211.073C1236 197.522 1223.32 190.747 1203.51 190.747C1193.78 190.747 1183.53 193.874 1172.76 200.128C1162.34 206.035 1153.48 214.896 1146.18 226.709C1138.89 238.176 1135.24 252.595 1135.24 269.969V388.801H1079.99Z" fill="white"/>
<path d="M948.12 393.972C924.84 393.972 903.64 388.934 884.53 378.857C865.77 368.781 850.66 354.188 839.19 335.077C828.07 315.967 822.51 293.034 822.51 266.279C822.51 241.262 827.55 219.546 837.63 201.13C848.05 182.714 862.47 168.468 880.89 158.392C899.65 148.316 921.19 143.277 945.51 143.277C965.67 143.277 982.17 145.883 995.03 151.095C1008.23 156.307 1018.13 161.867 1024.74 167.774L999.72 213.117C998.33 211.38 995.55 208.774 991.38 205.3C987.21 201.825 981.65 198.698 974.7 195.918C968.1 192.791 959.93 191.227 950.2 191.227C927.27 191.227 910.07 198.177 898.61 212.075C887.49 225.974 881.93 243.868 881.93 265.758C881.93 291.123 887.83 311.102 899.65 325.696C911.81 339.942 928.66 347.065 950.2 347.065C961.67 347.065 972.44 345.501 982.52 342.374C992.6 338.899 1000.24 335.251 1005.45 331.429L1025.78 371.04C1019.52 375.904 1009.62 380.942 996.07 386.154C982.52 391.366 966.54 393.972 948.12 393.972Z" fill="white"/>
<path d="M740.719 388.899H683.909V291.135L740.719 279.41V388.899ZM740.719 149.672H795.969V195.536H740.719V232.639L683.909 244.364V195.536H641.699V149.672H683.909V52.2082L740.719 39.6992V149.672Z" fill="white"/>
<path d="M535.44 93.8418C542.73 101.139 551.77 104.787 562.54 104.787C573.31 104.787 582.17 101.139 589.12 93.8418C596.42 86.5458 600.06 77.5108 600.06 66.7398C600.06 57.0108 596.42 48.6718 589.12 41.7228C582.17 34.7728 573.31 31.2988 562.54 31.2988C551.77 31.2988 542.73 34.7728 535.44 41.7228C528.49 48.6718 525.01 57.0108 525.01 66.7398C525.01 77.5108 528.49 86.5458 535.44 93.8418Z" fill="#FF4200"/>
<path d="M591.72 388.838H533.35V322.077L591.72 310.029V388.838ZM591.72 263.258L533.35 275.306V149.609H591.72V263.258Z" fill="white"/>
<path d="M461.36 388.932H405.59V348.578L461.36 337.066V388.932ZM461.36 290.297L405.59 301.807V5.85352H461.36V290.297Z" fill="white"/>
<path d="M197.012 394.023C168.172 394.023 141.591 388.985 117.269 378.909C93.294 368.832 72.446 354.934 54.725 337.213C37.352 319.145 23.801 297.95 14.072 273.627C4.69102 248.957 0 222.377 0 193.885C0 165.74 4.86402 139.854 14.593 116.227C24.322 92.599 38.047 72.099 55.768 54.725C73.488 37.352 94.51 23.975 118.832 14.593C143.155 4.8645 169.736 0 198.575 0C221.16 0 240.618 2.0848 256.949 6.254C273.627 10.076 286.831 14.42 296.56 19.284C306.636 23.801 313.064 27.45 315.844 30.229L292.912 79.222C290.479 77.137 285.615 74.01 278.318 69.84C271.021 65.671 260.771 61.848 247.568 58.374C234.711 54.899 218.033 53.162 197.533 53.162C169.041 53.162 144.718 59.416 124.566 71.925C104.413 84.086 88.951 100.591 78.179 121.438C67.408 142.286 62.022 165.393 62.022 190.757C62.022 220.292 67.929 246.525 79.743 269.458C91.557 292.043 107.714 309.764 128.214 322.62C148.714 335.128 171.994 341.383 198.054 341.383C212.995 341.383 228.11 339.472 243.398 335.65C259.034 331.828 272.238 325.399 283.009 316.365V242.356H204.308V188.673H340.862V338.777C329.395 353.37 311.327 366.226 286.657 377.345C261.987 388.464 232.106 394.023 197.012 394.023Z" fill="white"/>
</svg>
